:version 1.10
:name ASF
:units
  mass 1
  length 1
  angle deg
:documentation
  ASF file generated by Kaydara
:root
  axis xyz
  order  tx ty tz rx ry rz
  position 0 0 0
  orientation 0 0 0
:bonedata
  begin
    id 1
    name abdomenDummy
    direction 1 -1.27917e-005 -1.26829e-007
    length 1.79048
    axis 0 0 0 xyz
  end
  begin
    id 2
    name abdomen
    direction 0.987238 0.159249 -9.68575e-008
    length 8.61378
    axis 2.73208e-005 5.54953e-006 9.16328 xyz
    dof rx ry rz
  end
  begin
    id 3
    name chest
    direction 0 0 0
    length 0
    axis 2.65071e-005 8.63688e-006 2.59796 xyz
    dof rx ry rz
  end
  begin
    id 4
    name neckDummyDummy
    direction 0.998972 0.0453274 -1.50742e-007
    length 9.56202
    axis 2.65071e-005 8.63688e-006 2.59796 xyz
  end
  begin
    id 5
    name neckDummy
    direction 0.99977 0.0214525 -1.61748e-007
    length 1.93574
    axis 2.62932e-005 9.26758e-006 1.22924 xyz
    dof rx ry rz
  end
  begin
    id 6
    name neck
    direction 0.99928 -0.0379406 -1.88707e-007
    length 3.70367
    axis 2.56966e-005 1.08122e-005 -2.17436 xyz
    dof rx ry rz
  end
  begin
    id 7
    name head
    direction 0.992648 -0.121037 -2.25408e-007
    length 6.35158
    axis 2.47068e-005 1.29149e-005 -6.95196 xyz
    dof rx ry rz
  end
  begin
    id 8
    name figureHair
    direction -0.86681 -0.498639 -7.83376e-008
    length 8.29884
    axis -2.7515e-005 4.48842e-006 -150.09 xyz
    dof rx ry rz
  end
  begin
    id 9
    name lCollarDummy
    direction 0.994611 0.0451299 -0.0933417
    length 9.60395
    axis 2.65071e-005 8.63688e-006 2.59796 xyz
  end
  begin
    id 10
    name lCollar
    direction 0.0384146 0.00127577 -0.999261
    length 6.95318
    axis 90.4899 87.7973 1.90202 xyz
    dof rx ry rz
  end
  begin
    id 11
    name lShldr
    direction -0.030648 0.0920515 -0.995282
    length 9.61158
    axis -161.793 84.4324 108.415 xyz
    dof rx ry rz
  end
  begin
    id 12
    name lForeArm
    direction 0.000163956 -0.0977586 -0.99521
    length 8.6068
    axis 0.134773 84.3899 -89.8525 xyz
    dof rx ry rz
  end
  begin
    id 13
    name lHand
    direction -0.0190533 -0.1444 -0.989336
    length 7.61479
    axis -7.3729 81.6249 -97.517 xyz
    dof rx ry rz
  end
  begin
    id 14
    name rCollarDummy
    direction 0.994871 0.0442627 0.0909555
    length 9.60761
    axis 2.65071e-005 8.63688e-006 2.59796 xyz
  end
  begin
    id 15
    name rCollar
    direction 0.0334251 -4.74072e-007 0.999441
    length 6.97058
    axis -178.152 -88.0845 -0.000674207 xyz
    dof rx ry rz
  end
  begin
    id 16
    name rShldr
    direction -0.026922 0.0719509 0.997045
    length 9.60913
    axis 71.2822 -85.594 110.514 xyz
    dof rx ry rz
  end
  begin
    id 17
    name rForeArm
    direction 0.00134679 -0.118986 0.992895
    length 8.57176
    axis -88.7923 -83.1659 -89.3516 xyz
    dof rx ry rz
  end
  begin
    id 18
    name rHand
    direction -0.0185183 -0.0768601 0.99687
    length 7.69687
    axis -74.5596 -85.4655 -103.546 xyz
    dof rx ry rz
  end
  begin
    id 19
    name lThighDummy
    direction -0.236086 -0.0385456 -0.970967
    length 4.99155
    axis 0 0 0 xyz
  end
  begin
    id 20
    name lThigh
    direction -0.993968 0.0148998 -0.108653
    length 13.572
    axis -91.4001 6.23768 179.141 xyz
    dof rx ry rz
  end
  begin
    id 21
    name lShin
    direction -0.992341 0.0904576 -0.0841193
    length 18.5862
    axis -91.4558 4.82538 174.792 xyz
    dof rx ry rz
  end
  begin
    id 22
    name lFoot
    direction 0.0209381 -0.999771 -0.00453005
    length 8.44474
    axis 4.86759 0.259522 -88.8001 xyz
    dof rx ry rz
  end
  begin
    id 23
    name rThighDummy
    direction -0.236086 -0.0385456 0.970967
    length 4.99155
    axis 0 0 0 xyz
  end
  begin
    id 24
    name rThigh
    direction -0.993968 0.0148995 0.108653
    length 13.5721
    axis -89.7059 -6.2377 179.141 xyz
    dof rx ry rz
  end
  begin
    id 25
    name rShin
    direction -0.9925 0.0899962 0.0827255
    length 18.6716
    axis -89.2745 -4.74775 174.819 xyz
    dof rx ry rz
  end
  begin
    id 26
    name rFoot
    direction 0.0301721 -0.999545 9.70865e-005
    length 8.45013
    axis -2.50066e-005 -0.00555246 -88.271 xyz
    dof rx ry rz
  end
:hierarchy
  begin
    root abdomenDummy lThighDummy rThighDummy
    abdomenDummy abdomen
    abdomen chest
    chest neckDummyDummy lCollarDummy rCollarDummy
    neckDummyDummy neckDummy
    neckDummy neck
    neck head
    head figureHair
    lCollarDummy lCollar
    lCollar lShldr
    lShldr lForeArm
    lForeArm lHand
    rCollarDummy rCollar
    rCollar rShldr
    rShldr rForeArm
    rForeArm rHand
    lThighDummy lThigh
    lThigh lShin
    lShin lFoot
    rThighDummy rThigh
    rThigh rShin
    rShin rFoot
  end

:SAMPLES-PER-SECOND 25
:FULLY-SPECIFIED
:DEGREES
1632
root  4.11524 36.9456 -3.04514 -178.027 1.03368 88.238
abdomen  -2.21754 -1.8887 -8.06928
chest  -2.98051 -5.13382 -5.82501
neckDummy  9.09964e-021 0 8.72668e-016
neck  4.04085 8.31434 12.9514
head  0.572903 -5.92262 -7.40179
figureHair  0 1.51661e-021 -9.5315e-016
lCollar  -5.15695e-016 -6.42944e-016 -7.59357e-014
lShldr  9.24478 13.7513 -75.388
lForeArm  29.5883 -31.8773 -0.0888761
lHand  0.254698 0.195082 5.2986
rCollar  1.7976e-016 -5.12864e-014 1.62755e-015
rShldr  -18.663 68.5856 -11.0049
rForeArm  -1.66188 0.92971 32.8655
rHand  0.291974 -19.7958 2.93304
lThigh  -6.63254 0.245813 0.0478576
lShin  -6.84825 1.25354 -3.7215
lFoot  4.01531 -0.336189 -4.05428
rThigh  11.0929 -5.69878 -0.477549
rShin  15.3202 12.0367 6.16729
rFoot  -7.97922 0.969589 -0.0285909
1633
root  4.06084 37.0035 -2.82954 -177.366 0.96051 88.987
abdomen  -1.79303 -2.34978 -5.5355
chest  -2.02294 -2.60105 -6.82862
neckDummy  9.09964e-021 0 8.72668e-016
neck  3.47514 8.42507 10.2954
head  0.119325 -7.70771 -6.02842
figureHair  0 1.51661e-021 -9.5315e-016
lCollar  -5.15695e-016 -6.42944e-016 -7.59357e-014
lShldr  11.1034 11.8319 -73.8413
lForeArm  31.8468 -35.6258 0.110318
lHand  0.254698 0.195082 5.2986
rCollar  1.7976e-016 -5.12864e-014 1.62755e-015
rShldr  -25.3561 70.7704 -17.3306
rForeArm  -0.582686 0.998493 27.8686
rHand  0.127614 -20.16 3.81216
lThigh  -6.65862 0.0376021 0.021007
lShin  -5.7625 0.374076 -4.12812
lFoot  3.91136 -0.24776 -5.03256
rThigh  10.9149 -5.07297 -0.574806
rShin  15.9222 10.1276 6.21635
rFoot  -7.26724 0.783556 -0.690754
1634
root  4.03602 37.0215 -2.51607 -177.632 0.766464 90.0634
abdomen  -1.22068 -5.49044 -3.41227
chest  -0.466698 2.23512 -6.20899
neckDummy  9.09964e-021 0 8.72668e-016
neck  3.04549 9.50714 7.62623
head  -0.527902 -9.67064 -5.40726
figureHair  0 1.51661e-021 -9.5315e-016
lCollar  -5.15695e-016 -6.42944e-016 -7.59357e-014
lShldr  11.0862 11.5428 -73.0203
lForeArm  33.2249 -40.4168 0.396428
lHand  0.254698 0.195082 5.2986
rCollar  1.7976e-016 -5.12864e-014 1.62755e-015
rShldr  -37.622 71.4546 -25.7418
rForeArm  2.41325 1.05776 23.0425
rHand  0.246272 -18.6252 3.05667
lThigh  -6.27124 -0.670844 -0.389506
lShin  -6.81214 -0.352661 -4.33002
lFoot  4.65215 -0.328663 -4.64889
rThigh  10.6061 -5.33227 -0.64535
rShin  15.7444 8.36381 6.03436
rFoot  -6.52471 0.619523 -1.23905
1635
root  4.08011 37.0418 -2.20999 -178.297 0.521835 90.8506
abdomen  -0.497887 -8.16009 -2.80003
chest  1.05216 5.88351 -5.81845
neckDummy  9.09964e-021 0 8.72668e-016
neck  3.14051 10.9651 9.22041
head  -1.00577 -11.0494 -6.65858
figureHair  0 1.51661e-021 -9.5315e-016
lCollar  -5.15695e-016 -6.42944e-016 -7.59357e-014
lShldr  9.52074 11.5332 -73.4658
lForeArm  32.5908 -45.4676 0.736094
lHand  0.254698 0.195082 5.2986
rCollar  1.7976e-016 -5.12864e-014 1.62755e-015
rShldr  -47.3519 70.9475 -28.9216
rForeArm  1.90813 1.08455 20.1885
rHand  0.427186 -16.4235 1.74704
lThigh  -6.02258 -1.17361 -0.775321
lShin  -7.95253 -0.678047 -4.42469
lFoot  4.97019 -0.360505 -4.39366
rThigh  10.0843 -5.26398 -0.567976
rShin  15.4413 6.53725 5.66247
rFoot  -6.05851 0.474376 -1.92013
1636
root  4.16301 37.0649 -1.971 -178.75 0.387878 91.0348
abdomen  0.139946 -9.35931 -2.58114
chest  1.9876 7.45437 -6.79478
neckDummy  9.09964e-021 0 8.72668e-016
neck  3.67694 12.306 13.5209
head  -1.2992 -11.6352 -8.24435
figureHair  0 1.51661e-021 -9.5315e-016
lCollar  -5.15695e-016 -6.42944e-016 -7.59357e-014
lShldr  8.58787 10.0667 -74.6806
lForeArm  29.617 -45.8859 0.77332
lHand  0.254698 0.195082 5.2986
rCollar  1.7976e-016 -5.12864e-014 1.62755e-015
rShldr  -50.6834 70.7188 -27.1237
rForeArm  -2.68515 1.14831 18.6097
rHand  0.440513 -16.01 1.57675
lThigh  -6.02338 -1.48031 -0.989354
lShin  -8.28634 -0.569778 -4.53025
lFoot  5.41458 -0.386959 -4.52639
rThigh  9.54516 -4.77984 -0.403713
rShin  15.3759 4.87407 5.29567
rFoot  -5.69142 0.32793 -2.72235
1637
root  4.26034 37.0778 -1.78913 -178.707 0.221085 91.0642
abdomen  0.427391 -9.32727 -2.19612
chest  2.23428 7.39164 -7.80214
neckDummy  9.09964e-021 0 8.72668e-016
neck  4.38321 13.3963 16.1543
head  -1.34406 -11.8144 -8.67382
figureHair  0 1.51661e-021 -9.5315e-016
lCollar  -5.15695e-016 -6.42944e-016 -7.59357e-014
lShldr  9.97691 6.99913 -75.8237
lForeArm  25.9831 -38.7865 0.31877
lHand  0.254698 0.195082 5.2986
rCollar  1.7976e-016 -5.12864e-014 1.62755e-015
rShldr  -47.8704 71.0606 -23.2969
rForeArm  -5.43814 1.7538 16.5348
rHand  0.404546 -16.8764 1.94971
lThigh  -5.91051 -1.72103 -1.20016
lShin  -8.4763 -0.492249 -4.49889
lFoot  6.03713 -0.436323 -4.43442
rThigh  9.24475 -4.36061 -0.343677
rShin  15.5723 3.77075 5.11795
rFoot  -5.29635 0.206212 -3.35293
1638
root  4.38012 37.0862 -1.64529 -178.196 0.248352 90.9691
abdomen  0.297461 -8.2881 -1.99649
chest  1.88505 6.399 -7.94229
neckDummy  9.09964e-021 0 8.72668e-016
neck  4.96786 13.7411 16.3365
head  -0.992441 -11.3985 -8.47436
figureHair  0 1.51661e-021 -9.5315e-016
lCollar  -5.15695e-016 -6.42944e-016 -7.59357e-014
lShldr  14.9279 2.73277 -76.0296
lForeArm  20.9986 -26.2627 -0.448151
lHand  0.254698 0.195082 5.2986
rCollar  1.7976e-016 -5.12864e-014 1.62755e-015
rShldr  -38.7708 71.9303 -18.0257
rForeArm  -5.12274 3.21929 13.7411
rHand  0.405002 -17.048 1.97277
lThigh  -5.70218 -1.96245 -1.51162
lShin  -8.2792 -0.453381 -4.43972
lFoot  6.33902 -0.455237 -4.54693
rThigh  9.35076 -4.2609 -0.610726
rShin  15.9425 3.58664 5.12609
rFoot  -5.01259 0.150835 -3.58487
1639
root  4.51062 37.0868 -1.52518 -177.491 0.340927 90.7508
abdomen  -0.20211 -7.04107 -1.8976
chest  1.15108 5.47951 -7.86041
neckDummy  9.09964e-021 0 8.72668e-016
neck  5.24751 12.8757 15.7271
head  -0.314249 -10.1282 -8.39951
figureHair  0 1.51661e-021 -9.5315e-016
lCollar  -5.15695e-016 -6.42944e-016 -7.59357e-014
lShldr  20.2072 -2.08381 -75.299
lForeArm  16.6732 -12.4846 -3.03276
lHand  0.254698 0.195082 5.2986
rCollar  1.7976e-016 -5.12864e-014 1.62755e-015
rShldr  -26.5145 73.2424 -11.2388
rForeArm  -3.9307 4.2236 11.5306
rHand  0.4238 -16.875 1.8328
lThigh  -5.62138 -2.17986 -1.80513
lShin  -7.55182 -0.259636 -4.46738
lFoot  6.59741 -0.45339 -4.82026
rThigh  9.72071 -4.30842 -1.0582
rShin  16.3356 3.99833 5.26502
rFoot  -4.95081 0.152867 -3.52627
